<?xml version="1.0" encoding="UTF-8"?><svg id="a" xmlns="http://www.w3.org/2000/svg" xmlns:xlink="http://www.w3.org/1999/xlink" viewBox="0 0 792 792"><defs><style>.d{fill:none;}.e{fill:#676767;}.f{fill:#fefefe;}.g{fill:#fdfdfd;}.h{fill:#818181;}.i{fill:#6c6c6c;}.j{fill:#b8b8b8;}.k{fill:#666;}.l{fill:#dbdbdb;}.m{fill:#c5c5c5;}.n{opacity:.3;}.o{clip-path:url(#c);}.p{clip-path:url(#b);}</style><clipPath id="b"><rect class="d" width="792" height="792"/></clipPath><clipPath id="c"><rect class="d" width="792" height="792"/></clipPath></defs><g class="n"><g class="p"><g class="o"><path class="h" d="M365.89,731.08c-27.88,.5-54.55-5.89-80.67-15.25-11.15-4-22.24-8.12-33.29-12.38-19.95-7.68-37.19-19.78-53.88-32.72-61.08-47.35-110.01-104.89-144.9-174.03-12.59-24.94-22.1-51.03-27.22-78.62-4.25-22.92-3.94-45.8,0-68.69,7.61-44.23,25.95-84.07,50.32-121.3,37.53-57.33,85.62-104.22,141.98-142.93,14.24-9.78,29.76-16.67,45.8-22.63,20.13-7.47,40.23-15.08,61.41-19.2,18.92-3.68,37.97-4.34,57.22-3.27,17.8,.99,35.46,2.75,52.9,6.29,33.76,6.87,66.15,17.86,97.2,32.8,71.31,34.32,128.54,85.12,175.19,148.6,13.95,18.99,24.09,39.74,32.49,61.53,10.41,27,19.8,54.32,26.53,82.5,2.39,10,1.59,20.08,.16,30.03-3.82,26.69-11.21,52.46-21.1,77.54-3.12,7.92-8.06,14.74-12.69,21.72-51.09,77.03-117.78,136.73-199.89,179.14-41.45,21.41-84.86,37.45-130.56,47.11-12.18,2.58-24.46,4.11-37.02,3.75m-184.75-107.65l-.06-.03c-.24,.83,.36,1.27,.84,1.72,13.61,12.6,27.98,24.26,44.79,32.33,45.09,21.64,92.29,35.95,142.37,39.84,32.4,2.52,64.46,.41,96.07-7.32,60.01-14.67,110.17-46.07,152.6-90.4,27.86-29.1,50.26-62.08,68.6-97.88,8.42-16.43,16.24-33.19,22.34-50.59,6.89-19.65,8.7-40.34,9.83-61,.75-13.67-.85-27.28-2.68-40.8-1.43-10.51-3.51-20.91-7.55-30.82-11.3-27.67-27.04-52.66-45.76-75.84-6.23-7.71-12.33-15.55-19.62-22.33l.09,.09c-.51-1.34-1.59-2.23-2.53-3.23-17.87-19.05-37.07-36.65-57.61-52.78-37.73-29.63-78.41-54.21-123.33-71.4-41.42-15.85-84.03-24.57-128.63-20.32-30.11,2.86-58.26,11.88-83.85,28.1-18.3,11.6-35.4,24.92-52.54,38.14-33.8,26.05-60.41,57.87-77.68,97.19-11.53,26.25-19.15,53.64-24.26,81.77-2.19,12.06-4.47,24.11-5.12,36.39-1.66,10.76-3.03,21.56-3.85,32.4-1.51,19.96-1.31,39.9,.51,59.88,2.41,26.42,7.44,52.29,15.13,77.63,11.71,38.62,33.92,69.44,68.45,90.97,3.84,2.4,8.02,4.26,11.49,7.25,.61,.45,.96,1.35,1.97,1.06"/><path class="j" d="M429.5,643.92c-10.68,2.74-21.59,4.24-32.47,5.77-24.85,3.48-49.84,5.31-74.94,4.81-41.97-.84-83.07-6.68-122.2-22.83-6.33-2.61-12.54-5.51-18.8-8.27l.06,.03c-.28-1.05-1.17-.97-1.97-1.06-3.47-2.99-7.65-4.85-11.49-7.25-34.52-21.53-56.73-52.35-68.45-90.97-7.69-25.34-12.72-51.21-15.13-77.63-1.82-19.97-2.02-39.92-.51-59.88,.82-10.84,2.19-21.65,3.85-32.4,2.05-5.56,2.74-11.45,4.21-17.16,9.99-38.94,27.28-74,54.93-103.56,11.25-12.03,23.79-22.53,37.56-31.56,1.12-.73,2.09-1.86,3.62-1.77-.21,2.36-2.28,3.35-3.69,4.73-21.97,21.54-39.35,46.42-53.67,73.53-12.15,22.99-21.51,47.1-28.5,72.13-5.89,21.1-9.16,42.45-7.04,64.47,1.52,15.8,5.81,30.77,12.11,45.27,3.08,7.09,7.23,13.6,10.51,20.58,.06,.55,.22,1.04,.76,1.32l-.05-.08c-.17,2.44,1.02,4.55,1.74,6.75,15.55,47.39,45.52,82.61,89.92,105.22,33.35,16.98,69.34,23.73,106.38,25.84,8.3,2.4,16.57,4.9,24.9,7.19,21.85,6,43.93,10.88,66.43,13.8,7.32,.95,14.62,1.99,21.93,2.99"/><path class="j" d="M642.91,220.3c-.81,1.66,.54,2.54,1.39,3.49,19.78,22.44,30.56,49.06,36.29,78.03,5.38,27.17,6.06,54.66,5.4,82.23-3.33-18.82-9.32-36.73-18.34-53.6-8.22-15.35-18.26-29.46-29.36-42.85-.03-.83,.19-1.76-.91-2.12l.04,.07c-.74-4.43-2.92-8.3-5.24-11.97-9.65-15.23-21.46-28.61-35.27-40.23-20.08-16.89-42.95-28.73-67.63-37.19-6.07-2.08-12.06-4.62-18.59-5.09l.08,.05c-.26-1.1-1.22-.68-1.9-.86-4.64-2.09-9.29-4.16-13.91-6.29-24.2-11.12-49.12-20.31-74.7-27.74-12.55-3.65-25.33-6.37-37.97-9.64,23.24-1.99,46.47-1.89,69.73-.34,29.5,1.96,58.52,6.55,86.87,15.01,29.26,8.73,56.77,21.08,81.14,39.8,6.9,5.3,13.33,11.12,19.44,17.31,.91,.93,1.48,2.91,3.53,2.02l-.09-.09Z"/><path class="g" d="M179.18,622.37c.8,.09,1.69,0,1.97,1.06-1,.29-1.36-.61-1.97-1.06"/><path class="e" d="M638.29,287.61c11.09,13.39,21.14,27.49,29.36,42.84,9.03,16.87,15.01,34.78,18.34,53.6,4.49,33.21-3.22,64.32-16.32,94.49-.66,.43-.73,1.09-.72,1.79,0,.15-.04,.28-.14,.4-.77,.62-1.28,1.4-1.5,2.37-.02,.31-.05,.62-.07,.94-.32,.44-.71,.84-.95,1.32-6.19,12.76-13.23,25.05-20.46,37.25-2.48,4.18-5.93,7.93-6.8,12.98l.03-.04c-1.26-.08-1.58,.71-1.61,1.76l.03-.06c-.82,.26-.97,.9-.96,1.64l.04-.06c-.57,.15-.78,.58-.87,1.1-15.06,21.57-31.7,41.71-52.26,58.37-30.49,24.7-64.9,40.21-104,45.11-16.66,2.09-33.29,1.76-49.95,.5-7.31-1-14.62-2.04-21.93-2.99-22.49-2.92-44.58-7.8-66.43-13.8-8.33-2.29-16.6-4.79-24.9-7.19-1.76-.72-3.5-1.52-5.29-2.14-37.51-12.92-73.17-29.65-106.31-51.57-27.99-18.52-53.31-40.03-73.93-66.72-4.36-5.65-8.36-11.58-12.52-17.39l.05,.08c-.08-.54-.19-1.06-.76-1.32-3.27-6.98-7.43-13.49-10.51-20.58-6.29-14.5-10.59-29.47-12.11-45.27-2.12-22.01,1.15-43.37,7.04-64.47,6.99-25.03,16.35-49.14,28.5-72.13,14.33-27.11,31.7-51.99,53.67-73.53,1.41-1.38,3.48-2.37,3.69-4.73l-.03,.03c.57,.04,.88-.22,.91-.8l-.05,.02c.9,.16,1.41-.28,1.71-1.08,9.96-8.26,19.81-16.63,30.69-23.73,31.23-20.38,65.26-31.92,102.67-33.43,18.29-.74,36.26,1.19,54.13,4.7,1.48,.29,2.99,.46,4.48,.69,12.64,3.27,25.42,5.99,37.97,9.64,25.58,7.43,50.5,16.62,74.7,27.74,4.62,2.13,9.27,4.19,13.91,6.29,.45,.7,1.13,.87,1.9,.86l-.08-.05c.61,1.04,1.76,1.24,2.71,1.73,10.86,5.65,21.6,11.53,32.06,17.91,33.47,20.39,64.11,44.21,90.06,73.78,.46,.53,.83,1.53,1.91,1.05l-.04-.07c-.58,1.09,.47,1.48,.91,2.12m-472.83-23.61c-1.29,.29-1.57,1.42-2,2.43-.18,.29-.37,.57-.55,.86-.59,.35-.84,.91-.93,1.55-.78,1.14-1.63,2.23-2.32,3.41-18.82,32.36-29.53,67.23-31.3,104.61-1.3,27.38,5.12,53.31,17.2,77.82,14.44,29.28,35.77,52.91,61.42,72.6,37.99,29.16,79.59,52.34,123.46,71.32,31.25,13.52,63.68,22.27,98.3,18.98,5.67,.16,11.22-.91,16.82-1.56,25.1-2.94,49.56-8.54,73.2-17.55,27.49-10.47,52.18-25.43,73.18-46.15,18.59-18.34,32.57-39.8,42.44-63.93,3.64-8.89,7.19-17.86,8.89-27.41,1.61-4.84,2.81-9.78,3.74-14.79,2.12-11.37,4.63-22.79,4.24-34.38-.66-19.28-4.96-37.91-12.33-55.78-13.15-31.92-34.21-58.07-59.79-80.69-31.19-27.58-65.59-50.77-101.52-71.65-20.17-11.72-41.42-21.16-64.16-26.92-10.99-3.18-22.24-5.08-33.64-5.44-23.85-.75-47.56,.67-71.13,4.72-23.89,4.11-46.89,10.98-68.57,21.79-25.47,12.7-47.55,29.84-65.24,52.29-3.45,4.38-7.41,8.49-9.43,13.87l.03-.04Z"/><path class="j" d="M190.31,198.36c-.29,.79-.81,1.24-1.71,1.08,.34-.73,1.02-.91,1.71-1.08"/><path class="j" d="M188.65,199.42c-.04,.57-.34,.84-.91,.8,0-.61,.38-.79,.91-.8"/><path class="j" d="M639.04,535.59c.87-5.05,4.32-8.8,6.8-12.98,7.23-12.2,14.27-24.49,20.46-37.25,.23-.48,.63-.88,.95-1.32,.19,3.2-1.67,5.76-2.86,8.46-6.47,14.74-14.36,28.7-23.92,41.68-.39,.53-.95,.94-1.43,1.41"/><path class="j" d="M667.31,483.1c.21-.97,.73-1.75,1.5-2.37,.17,1.21-.21,2.08-1.5,2.37"/><path class="j" d="M637.45,537.31c.03-1.05,.35-1.84,1.61-1.76-.18,.91-.53,1.68-1.61,1.76"/><path class="j" d="M668.95,480.32c0-.69,.06-1.36,.72-1.79,.03,.7-.04,1.37-.72,1.79"/><path class="j" d="M636.53,538.9c-.01-.74,.14-1.39,.96-1.64,.13,.81-.25,1.32-.96,1.64"/><path class="j" d="M635.71,539.94c.09-.53,.3-.95,.87-1.1-.05,.55-.39,.88-.87,1.1"/><path class="f" d="M117.48,480.89c.57,.26,.68,.78,.76,1.32-.53-.28-.7-.77-.76-1.32"/><path class="f" d="M638.29,287.61c-.44-.65-1.5-1.03-.91-2.12,1.11,.36,.88,1.3,.91,2.12"/><path class="f" d="M510.77,191.13c-.77,.01-1.45-.16-1.9-.86,.68,.19,1.64-.24,1.9,.86"/><path class="j" d="M428.74,617.57c7.04-1.1,14.1-2.1,21.12-3.33,28.82-5.05,56.81-12.83,81.5-29.06,35.66-23.44,66.94-51.66,91.16-87.16,7.24-10.6,13.44-21.79,18.82-33.45,.57-1.23,.85-2.63,1.93-3.58-1.7,9.54-5.25,18.51-8.89,27.41-9.87,24.12-23.85,45.59-42.44,63.92-21.01,20.72-45.69,35.68-73.18,46.15-23.65,9-48.1,14.61-73.2,17.54-5.59,.65-11.15,1.72-16.82,1.56"/><path class="j" d="M413.46,176.8c-14.85-1.1-29.71-1.73-44.6-1.71-24.04,.03-47.85,2.14-71.4,7.31-28,6.15-52.53,19.5-75.89,35.46-19.3,13.18-37.39,27.81-53.56,44.74-.66,.69-1.09,2.08-2.56,1.45,2.02-5.38,5.98-9.49,9.43-13.87,17.69-22.46,39.77-39.6,65.24-52.29,21.68-10.81,44.68-17.69,68.57-21.79,23.57-4.05,47.28-5.47,71.13-4.72,11.4,.36,22.65,2.26,33.64,5.44"/><path class="j" d="M165.47,264c.34,1.64-.4,2.39-2,2.43,.43-1,.71-2.14,2-2.43"/><path class="j" d="M162.91,267.28c.09,.76-.19,1.29-.93,1.55,.09-.65,.34-1.21,.93-1.55"/><path class="i" d="M382.27,223.99c55.59,.68,107.05,15.61,154.1,45.28,19.68,12.41,32.61,30.55,41.46,51.79,8.46,20.32,12.22,41.69,14,63.48,1.35,16.67,1.44,33.33-.81,49.95-3.86,28.5-13.77,54.22-35.36,74.17-17.5,16.17-37.11,29.44-58.16,40.59-27.59,14.62-56.71,24.82-87.54,29.88-27.59,4.53-55.14,4.69-82.55-1.67-35.03-8.12-61.78-28.03-82.09-57.25-17.81-25.62-28.85-54.04-35.14-84.45-3.28-15.83-4.95-31.86-5.68-47.98-.66-14.53,2.55-28.46,7.16-42.13,7.77-23.02,18.97-44.23,33.37-63.78,18.7-25.38,44.23-40.52,73.95-49.3,20.63-6.1,41.77-8.7,63.29-8.59m7.3,325.24c25.17,0,50.1-2.38,74.68-7.9,19.84-4.46,38.98-10.79,56.5-21.47,15.23-9.29,25.25-21.99,29-39.81,3.82-18.19,5.38-36.55,5.47-55.03,.14-25.82-2-51.52-6.54-76.96-3.34-18.73-7.78-37.18-15.69-54.63-4.72-10.42-11.86-18.4-21.89-23.96-9.23-5.12-18.97-8.8-29.18-11.3-23.49-5.76-47.34-7-71.42-5.94-31.98,1.41-63.29,6.5-93.62,16.82-20.13,6.85-38.92,15.9-53.54,32.22-31.83,35.52-43.51,77.66-38.62,124.02,2.91,27.63,14.96,52.6,32.78,74.31,18.6,22.66,41.47,38.27,70.85,43.82,20.28,3.83,40.63,5.81,61.23,5.82"/><path class="l" d="M526.39,400.87c-.45,26.95-4.52,51.95-15.75,75.38-7.39,15.42-17.36,28.75-32.04,38.11-13.65,8.71-28.65,11.02-44.42,9.45-27.31-2.73-54.39-6.83-80.96-13.89-22.03-5.85-43.52-13.15-63.09-25.15-10.66-6.54-20.22-14.33-27.38-24.8-6.27-9.17-8.12-19.13-7.54-30.17,1.85-35.67,16.17-66.87,33.9-96.88,9.71-16.43,21.65-31.17,34.33-45.47,17.64-19.89,39.65-27.43,65.5-25.64,33.37,2.31,63.31,13.86,89.91,34.01,15.61,11.82,28.17,26.32,36.82,44.01,5.27,10.79,7.15,22.52,9.04,34.2,1.5,9.27,1.16,18.69,1.68,26.84m-133.44,109.16c10.54,3.31,21.39,4.59,32.2,2.65,18.15-3.24,34.65-10.82,49.66-21.43,17.57-12.42,29.82-28.83,35.67-49.7,4.76-16.96,4.34-34.03,.69-51.14-3.61-16.88-7.42-33.67-18.3-47.76-.24-.32-.31-.76-.5-1.13-3.15-6.3-6.64-12.4-10.78-18.09-16.79-23.09-37.77-40.9-65.27-49.8-24.79-8.03-47.82-4.98-68.11,12.59-14.72,12.74-28.93,25.98-41.62,40.78-13.72,15.99-25.56,33.18-33.15,53.01-4.69,12.26-6.87,24.89-5.49,38.05,1.2,11.41,5.57,21.84,9.98,32.21,4.02,9.45,10.63,17.03,18.99,23.01,12.37,8.85,26.46,14.02,40.67,18.91,1.41,1.09,2.92,2.07,4.2,3.29,8.36,7.96,18.36,12.28,29.73,13.89,7.14,1.01,14.29,.07,21.41,.67"/><path class="m" d="M409.14,296.21h16.43c.86,.31,1.7,.73,2.58,.9,11.14,2.19,21.56,6.13,30.67,13.02,23.44,17.73,37.47,41.59,44.81,69.71,1.23,4.71,2.17,9.5,3.24,14.25v13.16c-.55,1.8-1.27,3.57-1.63,5.41-2.54,13.07-4.83,26.29-14.05,36.72-6.24,7.06-12.48,14.2-19.42,20.52-20.08,18.28-43.2,31.09-69.83,37.14-12.55,2.85-25.15,3.25-37.66-.13-15.23-4.11-25.86-14.24-34.16-27.08-9.59-14.84-14.5-31.48-17.88-48.64-2.96-15.05-6.11-30.1-.2-45.19,.19-.49,.19-1.08,.2-1.62,.26-8.41,3.02-16.07,7-23.37,7.85-14.39,18.62-26.32,31.13-36.73,14.7-12.22,30.93-21.57,49.73-25.95,3.01-.7,6.02-1.4,9.03-2.11m-84.43,126.22c.76,10.22,1.07,20.49,2.37,30.64,2.97,23.09,19.08,45.15,49.37,42.18,32.63-3.2,62.46-14.16,89.58-32.57,13.47-9.14,22.36-21.76,26.31-37.41,1.68-6.65,.89-13.88,1.71-20.78,1.36-11.42-.06-22.55-4.3-33.02-13.58-33.58-40.53-48.95-74.89-52.98-17.6-2.06-33.91,3.26-48.78,12.54-17.68,11.04-30.79,25.81-35.2,46.88-1,4.79-.16,10.16-1.92,14.56-3.91,9.78-3.84,19.77-4.26,29.95"/><path class="k" d="M335.02,399.46c.76-2.8,1.6-5.57,2.26-8.39,4.06-17.27,12.31-32.33,24.3-45.29,11.87-12.83,27.12-16.44,43.79-14.33,23.82,3.03,43.3,14.57,58.33,32.97,13.88,16.98,17.1,36.97,13.43,58.23-1.71,9.93-5.12,19.28-9.9,28.19-7.71,14.35-19.78,22.32-35.76,23.28-28.3,1.71-54.09-6.26-77.18-22.59-9.79-6.92-15.65-16.69-17.98-28.51-.22-1.11-.83-2.14-1.26-3.21v-20.35Zm76.74,63.57c6.13-.5,14.53-.94,22.86-1.92,21.25-2.5,33.52-14.89,35.64-36.06,2.42-24.04-5.18-44.9-21-62.84-19.3-21.88-48.7-30.45-77.7-15.79-8.1,4.09-13.75,9.92-17.04,18.19-6.94,17.41-8.41,35.45-6,53.9,1.29,9.87,4.35,18.85,11.63,26.2,13.67,13.8,30.75,17.92,51.59,18.32"/></g></g></g></svg>